<svg width="220" height="72" viewBox="0 0 220 72" fill="none" xmlns="http://www.w3.org/2000/svg">
<path d="M92.184 48.252C89.808 48.252 87.624 47.7 85.632 46.596C83.664 45.492 82.092 43.956 80.916 41.988C79.764 39.996 79.188 37.764 79.188 35.292C79.188 32.82 79.764 30.6 80.916 28.632C82.092 26.664 83.664 25.128 85.632 24.024C87.624 22.92 89.808 22.368 92.184 22.368C94.56 22.368 96.732 22.92 98.7 24.024C100.692 25.128 102.252 26.664 103.38 28.632C104.532 30.6 105.108 32.82 105.108 35.292C105.108 37.764 104.532 39.996 103.38 41.988C102.228 43.956 100.668 45.492 98.7 46.596C96.732 47.7 94.56 48.252 92.184 48.252ZM92.184 42.636C94.2 42.636 95.808 41.964 97.008 40.62C98.232 39.276 98.844 37.5 98.844 35.292C98.844 33.06 98.232 31.284 97.008 29.964C95.808 28.62 94.2 27.948 92.184 27.948C90.144 27.948 88.512 28.608 87.288 29.928C86.088 31.248 85.488 33.036 85.488 35.292C85.488 37.524 86.088 39.312 87.288 40.656C88.512 41.976 90.144 42.636 92.184 42.636ZM118.289 21.36V48H112.133V21.36H118.289ZM129.446 25.824C128.366 25.824 127.478 25.512 126.782 24.888C126.11 24.24 125.774 23.448 125.774 22.512C125.774 21.552 126.11 20.76 126.782 20.136C127.478 19.488 128.366 19.164 129.446 19.164C130.502 19.164 131.366 19.488 132.038 20.136C132.734 20.76 133.082 21.552 133.082 22.512C133.082 23.448 132.734 24.24 132.038 24.888C131.366 25.512 130.502 25.824 129.446 25.824ZM132.506 27.912V48H126.35V27.912H132.506ZM149.603 42.24L153.959 27.912H160.511L153.383 48H145.787L138.659 27.912H145.247L149.603 42.24ZM165.478 37.92C165.478 35.856 165.862 34.044 166.63 32.484C167.422 30.924 168.49 29.724 169.834 28.884C171.178 28.044 172.678 27.624 174.334 27.624C175.75 27.624 176.986 27.912 178.042 28.488C179.122 29.064 179.95 29.82 180.526 30.756V27.912H186.682V48H180.526V45.156C179.926 46.092 179.086 46.848 178.006 47.424C176.95 48 175.714 48.288 174.298 48.288C172.666 48.288 171.178 47.868 169.834 47.028C168.49 46.164 167.422 44.952 166.63 43.392C165.862 41.808 165.478 39.984 165.478 37.92ZM180.526 37.956C180.526 36.42 180.094 35.208 179.23 34.32C178.39 33.432 177.358 32.988 176.134 32.988C174.91 32.988 173.866 33.432 173.002 34.32C172.162 35.184 171.742 36.384 171.742 37.92C171.742 39.456 172.162 40.68 173.002 41.592C173.866 42.48 174.91 42.924 176.134 42.924C177.358 42.924 178.39 42.48 179.23 41.592C180.094 40.704 180.526 39.492 180.526 37.956Z" fill="#16A34A"/>
<rect width="72" height="72" rx="14.4" fill="#16A34A"/>
<path d="M54.5738 34.0087V35.9494C54.5738 39.0619 54.1519 41.8556 53.3081 44.3306C52.4644 46.8056 51.2738 48.915 49.7363 50.6587C48.1988 52.3837 46.3612 53.7056 44.2237 54.6244C42.105 55.5431 39.7519 56.0025 37.1644 56.0025C34.5956 56.0025 32.2425 55.5431 30.105 54.6244C27.9862 53.7056 26.1487 52.3837 24.5925 50.6587C23.0362 48.915 21.8269 46.8056 20.9644 44.3306C20.1206 41.8556 19.6987 39.0619 19.6987 35.9494V34.0087C19.6987 30.8775 20.1206 28.0837 20.9644 25.6275C21.8081 23.1525 22.9987 21.0431 24.5362 19.2994C26.0925 17.5556 27.93 16.2244 30.0487 15.3056C32.1862 14.3869 34.5394 13.9275 37.1081 13.9275C39.6956 13.9275 42.0487 14.3869 44.1675 15.3056C46.305 16.2244 48.1425 17.5556 49.68 19.2994C51.2363 21.0431 52.4363 23.1525 53.28 25.6275C54.1425 28.0837 54.5738 30.8775 54.5738 34.0087ZM46.0519 35.9494V33.9525C46.0519 31.7775 45.855 29.865 45.4612 28.215C45.0675 26.565 44.4862 25.1775 43.7175 24.0525C42.9487 22.9275 42.0112 22.0837 40.905 21.5212C39.7987 20.94 38.5331 20.6494 37.1081 20.6494C35.6831 20.6494 34.4175 20.94 33.3112 21.5212C32.2237 22.0837 31.2956 22.9275 30.5269 24.0525C29.7769 25.1775 29.205 26.565 28.8112 28.215C28.4175 29.865 28.2206 31.7775 28.2206 33.9525V35.9494C28.2206 38.1056 28.4175 40.0181 28.8112 41.6869C29.205 43.3369 29.7862 44.7337 30.555 45.8775C31.3237 47.0025 32.2612 47.8556 33.3675 48.4369C34.4737 49.0181 35.7394 49.3087 37.1644 49.3087C38.5894 49.3087 39.855 49.0181 40.9612 48.4369C42.0675 47.8556 42.9956 47.0025 43.7456 45.8775C44.4956 44.7337 45.0675 43.3369 45.4612 41.6869C45.855 40.0181 46.0519 38.1056 46.0519 35.9494Z" fill="white"/>
</svg>
